<svg width="512" height="512" viewBox="0 0 512 512" fill="none" xmlns="http://www.w3.org/2000/svg">
<g clip-path="url(#clip0_409_10988)">
<path d="M255.994 495.924C389.216 495.924 497.214 388.507 497.214 256C497.214 123.494 389.216 16.0767 255.994 16.0767C122.772 16.0767 14.7734 123.494 14.7734 256C14.7734 388.507 122.772 495.924 255.994 495.924Z" fill="#1D1E1D"/>
<path d="M512 229.341C498.592 100.484 389.102 0 255.994 0C122.886 0 13.408 100.484 0 229.341H512Z" fill="#98CA3E"/>
<path d="M0 282.659C13.408 411.516 122.898 512 255.994 512C389.09 512 498.592 411.516 511.988 282.659H0Z" fill="#E7E7E9"/>
<path d="M255.993 336.665C300.783 336.665 337.092 300.55 337.092 256.001C337.092 211.451 300.783 175.337 255.993 175.337C211.202 175.337 174.893 211.451 174.893 256.001C174.893 300.55 211.202 336.665 255.993 336.665Z" fill="#1D1E1D"/>
<path d="M314.894 279.308C327.832 246.966 311.96 210.317 279.443 197.449C246.927 184.582 210.08 200.368 197.143 232.71C184.205 265.051 200.077 301.7 232.594 314.568C265.11 327.436 301.957 311.649 314.894 279.308Z" fill="#F7F7F7"/>
<path d="M255.997 298.517C279.605 298.517 298.743 279.482 298.743 256.002C298.743 232.521 279.605 213.486 255.997 213.486C232.389 213.486 213.251 232.521 213.251 256.002C213.251 279.482 232.389 298.517 255.997 298.517Z" fill="#B8B5B5"/>
<path d="M255.997 295.387C277.866 295.387 295.594 277.754 295.594 256.003C295.594 234.252 277.866 216.619 255.997 216.619C234.128 216.619 216.4 234.252 216.4 256.003C216.4 277.754 234.128 295.387 255.997 295.387Z" fill="#F7F7F7"/>
</g>
<defs>
<clipPath id="clip0_409_10988">
<rect width="512" height="512" fill="white"/>
</clipPath>
</defs>
</svg>
