<svg width="19" height="20" viewBox="0 0 19 20" fill="none" xmlns="http://www.w3.org/2000/svg">
<path d="M15.6288 15.94C19.0165 12.517 19.0165 6.96733 15.6288 3.54437C12.241 0.121411 6.74839 0.121409 3.36064 3.54437C-0.0271188 6.96733 -0.0271188 12.517 3.36064 15.94C6.74839 19.363 12.241 19.363 15.6288 15.94Z" fill="#1D1E1D"/>
<path d="M18.702 8.7683C18.2194 4.06088 14.2817 0.390625 9.49489 0.390625C4.70807 0.390625 0.771658 4.06088 0.289062 8.7683H18.702Z" fill="url(#paint0_linear_1768_2990)"/>
<path d="M0.289062 10.7148C0.771658 15.4223 4.70937 19.0925 9.49489 19.0925C14.2804 19.0925 18.2194 15.4223 18.7007 10.7148H0.289062Z" fill="#E7E7E9"/>
<path d="M9.49456 12.6904C11.1053 12.6904 12.411 11.3711 12.411 9.74362C12.411 8.11618 11.1053 6.79688 9.49456 6.79688C7.88386 6.79688 6.57812 8.11618 6.57812 9.74362C6.57812 11.3711 7.88386 12.6904 9.49456 12.6904Z" fill="#1D1E1D"/>
<path d="M9.49348 12.046C10.7519 12.046 11.7721 11.0152 11.7721 9.74372C11.7721 8.47219 10.7519 7.44141 9.49348 7.44141C8.23502 7.44141 7.21484 8.47219 7.21484 9.74372C7.21484 11.0152 8.23502 12.046 9.49348 12.046Z" fill="#F7F7F7"/>
<path d="M9.49481 11.2989C10.3441 11.2989 11.0326 10.6033 11.0326 9.74517C11.0326 8.88705 10.3441 8.19141 9.49481 8.19141C8.64552 8.19141 7.95703 8.88705 7.95703 9.74517C7.95703 10.6033 8.64552 11.2989 9.49481 11.2989Z" fill="#B8B5B5"/>
<path d="M9.49462 11.1829C10.2812 11.1829 10.9189 10.5386 10.9189 9.7438C10.9189 8.949 10.2812 8.30469 9.49462 8.30469C8.708 8.30469 8.07031 8.949 8.07031 9.7438C8.07031 10.5386 8.708 11.1829 9.49462 11.1829Z" fill="#F7F7F7"/>
<defs>
<linearGradient id="paint0_linear_1768_2990" x1="20.2638" y1="7.40314" x2="3.66656" y2="7.74793" gradientUnits="userSpaceOnUse">
<stop stop-color="#B57E10"/>
<stop offset="0.240861" stop-color="#B57E10"/>
<stop offset="0.404291" stop-color="#F9DF7B"/>
<stop offset="0.59375" stop-color="#FFF3A6"/>
<stop offset="0.78125" stop-color="#F9DF7B"/>
<stop offset="1" stop-color="#B57E10"/>
</linearGradient>
</defs>
</svg>
